<mxfile host="Electron" modified="2024-04-28T16:01:56.006Z" agent="Mozilla/5.0 (Windows NT 10.0; Win64; x64) AppleWebKit/537.36 (KHTML, like Gecko) draw.io/24.2.5 Chrome/120.0.6099.109 Electron/28.1.0 Safari/537.36" etag="5gDs5JSqFGtBRsSmJF4e" version="24.2.5" type="device">
  <diagram name="Page-1" id="AIda5HVUl_iWoyiOEus1">
    <mxGraphModel dx="1100" dy="537" grid="1" gridSize="10" guides="1" tooltips="1" connect="1" arrows="1" fold="1" page="1" pageScale="1" pageWidth="850" pageHeight="1100" math="0" shadow="0">
      <root>
        <mxCell id="0" />
        <mxCell id="1" parent="0" />
        <mxCell id="9e8fiXm37wEuwEzVcO6m-1" value="" style="swimlane;startSize=0;" vertex="1" parent="1">
          <mxGeometry x="80" y="120" width="360" height="300" as="geometry">
            <mxRectangle x="80" y="120" width="50" height="40" as="alternateBounds" />
          </mxGeometry>
        </mxCell>
        <mxCell id="9e8fiXm37wEuwEzVcO6m-5" value="Control Unit" style="text;html=1;align=center;verticalAlign=middle;resizable=0;points=[];autosize=1;strokeColor=none;fillColor=none;fontSize=14;" vertex="1" parent="9e8fiXm37wEuwEzVcO6m-1">
          <mxGeometry x="130" width="100" height="30" as="geometry" />
        </mxCell>
        <mxCell id="9e8fiXm37wEuwEzVcO6m-13" style="edgeStyle=orthogonalEdgeStyle;rounded=0;orthogonalLoop=1;jettySize=auto;html=1;entryX=0.5;entryY=0;entryDx=0;entryDy=0;" edge="1" parent="9e8fiXm37wEuwEzVcO6m-1" source="9e8fiXm37wEuwEzVcO6m-2" target="9e8fiXm37wEuwEzVcO6m-6">
          <mxGeometry relative="1" as="geometry">
            <Array as="points">
              <mxPoint x="80" y="40" />
              <mxPoint x="270" y="40" />
            </Array>
          </mxGeometry>
        </mxCell>
        <mxCell id="9e8fiXm37wEuwEzVcO6m-14" style="edgeStyle=orthogonalEdgeStyle;rounded=0;orthogonalLoop=1;jettySize=auto;html=1;entryX=0.5;entryY=0;entryDx=0;entryDy=0;" edge="1" parent="9e8fiXm37wEuwEzVcO6m-1" source="9e8fiXm37wEuwEzVcO6m-2" target="9e8fiXm37wEuwEzVcO6m-7">
          <mxGeometry relative="1" as="geometry">
            <Array as="points">
              <mxPoint x="180" y="120" />
            </Array>
          </mxGeometry>
        </mxCell>
        <mxCell id="9e8fiXm37wEuwEzVcO6m-2" value="Data Path" style="rounded=0;whiteSpace=wrap;html=1;" vertex="1" parent="9e8fiXm37wEuwEzVcO6m-1">
          <mxGeometry x="20" y="60" width="120" height="120" as="geometry" />
        </mxCell>
        <mxCell id="9e8fiXm37wEuwEzVcO6m-12" style="edgeStyle=orthogonalEdgeStyle;rounded=0;orthogonalLoop=1;jettySize=auto;html=1;entryX=0.5;entryY=1;entryDx=0;entryDy=0;exitX=0;exitY=0.5;exitDx=0;exitDy=0;" edge="1" parent="9e8fiXm37wEuwEzVcO6m-1" source="9e8fiXm37wEuwEzVcO6m-7" target="9e8fiXm37wEuwEzVcO6m-2">
          <mxGeometry relative="1" as="geometry">
            <Array as="points">
              <mxPoint x="80" y="250" />
            </Array>
          </mxGeometry>
        </mxCell>
        <mxCell id="9e8fiXm37wEuwEzVcO6m-16" style="edgeStyle=orthogonalEdgeStyle;rounded=0;orthogonalLoop=1;jettySize=auto;html=1;entryX=1;entryY=0.5;entryDx=0;entryDy=0;" edge="1" parent="9e8fiXm37wEuwEzVcO6m-1" source="9e8fiXm37wEuwEzVcO6m-7" target="9e8fiXm37wEuwEzVcO6m-6">
          <mxGeometry relative="1" as="geometry">
            <Array as="points">
              <mxPoint x="320" y="250" />
              <mxPoint x="320" y="90" />
            </Array>
          </mxGeometry>
        </mxCell>
        <mxCell id="9e8fiXm37wEuwEzVcO6m-7" value="Instruction Decoder" style="whiteSpace=wrap;html=1;" vertex="1" parent="9e8fiXm37wEuwEzVcO6m-1">
          <mxGeometry x="120" y="220" width="120" height="60" as="geometry" />
        </mxCell>
        <mxCell id="9e8fiXm37wEuwEzVcO6m-15" style="edgeStyle=orthogonalEdgeStyle;rounded=0;orthogonalLoop=1;jettySize=auto;html=1;" edge="1" parent="9e8fiXm37wEuwEzVcO6m-1" source="9e8fiXm37wEuwEzVcO6m-6">
          <mxGeometry relative="1" as="geometry">
            <mxPoint x="140" y="80" as="targetPoint" />
            <Array as="points">
              <mxPoint x="140" y="80" />
            </Array>
          </mxGeometry>
        </mxCell>
        <mxCell id="9e8fiXm37wEuwEzVcO6m-17" style="edgeStyle=orthogonalEdgeStyle;rounded=0;orthogonalLoop=1;jettySize=auto;html=1;entryX=0.75;entryY=0;entryDx=0;entryDy=0;" edge="1" parent="9e8fiXm37wEuwEzVcO6m-1" source="9e8fiXm37wEuwEzVcO6m-6" target="9e8fiXm37wEuwEzVcO6m-7">
          <mxGeometry relative="1" as="geometry">
            <Array as="points">
              <mxPoint x="270" y="190" />
              <mxPoint x="210" y="190" />
            </Array>
          </mxGeometry>
        </mxCell>
        <mxCell id="9e8fiXm37wEuwEzVcO6m-6" value="Tick" style="whiteSpace=wrap;html=1;" vertex="1" parent="9e8fiXm37wEuwEzVcO6m-1">
          <mxGeometry x="240" y="60" width="60" height="60" as="geometry" />
        </mxCell>
        <mxCell id="9e8fiXm37wEuwEzVcO6m-20" value="interrupt" style="text;html=1;align=center;verticalAlign=middle;resizable=0;points=[];autosize=1;strokeColor=none;fillColor=none;fontSize=10;" vertex="1" parent="9e8fiXm37wEuwEzVcO6m-1">
          <mxGeometry x="140" y="98" width="60" height="30" as="geometry" />
        </mxCell>
        <mxCell id="9e8fiXm37wEuwEzVcO6m-21" value="instruction" style="text;html=1;align=center;verticalAlign=middle;resizable=0;points=[];autosize=1;strokeColor=none;fillColor=none;fontSize=10;" vertex="1" parent="9e8fiXm37wEuwEzVcO6m-1">
          <mxGeometry x="50" y="243" width="70" height="30" as="geometry" />
        </mxCell>
        <mxCell id="9e8fiXm37wEuwEzVcO6m-3" value="Input Device" style="rounded=0;whiteSpace=wrap;html=1;" vertex="1" parent="1">
          <mxGeometry x="480" y="160" width="120" height="60" as="geometry" />
        </mxCell>
        <mxCell id="9e8fiXm37wEuwEzVcO6m-4" value="Output Device" style="rounded=0;whiteSpace=wrap;html=1;" vertex="1" parent="1">
          <mxGeometry x="480" y="320" width="120" height="60" as="geometry" />
        </mxCell>
        <mxCell id="9e8fiXm37wEuwEzVcO6m-8" value="" style="endArrow=classic;startArrow=classic;html=1;rounded=0;exitX=1.001;exitY=0.232;exitDx=0;exitDy=0;exitPerimeter=0;entryX=0;entryY=0.5;entryDx=0;entryDy=0;" edge="1" parent="1" source="9e8fiXm37wEuwEzVcO6m-1" target="9e8fiXm37wEuwEzVcO6m-3">
          <mxGeometry width="50" height="50" relative="1" as="geometry">
            <mxPoint x="450" y="190" as="sourcePoint" />
            <mxPoint x="480" y="189.76" as="targetPoint" />
          </mxGeometry>
        </mxCell>
        <mxCell id="9e8fiXm37wEuwEzVcO6m-9" value="" style="endArrow=classic;startArrow=classic;html=1;rounded=0;entryX=0;entryY=0.5;entryDx=0;entryDy=0;exitX=1.001;exitY=0.766;exitDx=0;exitDy=0;exitPerimeter=0;" edge="1" parent="1" source="9e8fiXm37wEuwEzVcO6m-1" target="9e8fiXm37wEuwEzVcO6m-4">
          <mxGeometry width="50" height="50" relative="1" as="geometry">
            <mxPoint x="450" y="360" as="sourcePoint" />
            <mxPoint x="480" y="349.76" as="targetPoint" />
          </mxGeometry>
        </mxCell>
      </root>
    </mxGraphModel>
  </diagram>
</mxfile>
